<?xml version="1.0" encoding="UTF-8" standalone="no"?>
<svg
   version="1.1"
   width="43.659538"
   height="46.062492"
   id="svg2"
   sodipodi:docname="club.svg"
   xmlns:inkscape="http://www.inkscape.org/namespaces/inkscape"
   xmlns:sodipodi="http://sodipodi.sourceforge.net/DTD/sodipodi-0.dtd"
   xmlns="http://www.w3.org/2000/svg"
   xmlns:svg="http://www.w3.org/2000/svg">
  <sodipodi:namedview
     id="namedview751"
     pagecolor="#ffffff"
     bordercolor="#000000"
     borderopacity="0.25"
     inkscape:showpageshadow="2"
     inkscape:pageopacity="0.0"
     inkscape:pagecheckerboard="0"
     inkscape:deskcolor="#d1d1d1"
     showgrid="false" />
  <defs
     id="defs1" />
  <path
     d="m 22.575636,30.396467 c 0.047,-1.276 0.094,-2.551 0.141,-3.826 1.664,0.679 1.512,2.624 1.751,4.094 0.797,4.647 4.955,8.813 9.863,8.528 5.233,-0.19 9.149,-5.181 9.302,-10.192 0.378,-5.23 -3.261,-10.858 -8.732,-11.431 -3.857,-0.482 -7.534,1.935 -9.339,5.238 -0.392,0.858 -2.9,1.427 -2.245,-0.055 0.578,-1.931 2.991,-1.847 4.221,-3.187 5.406,-4.307 5.265,-13.6229996 -0.298,-17.7329996 -3.526,-2.853 -9.090004,-2.29000004 -12.065004,1.1 -4.589,4.691 -3.916,13.3799996 1.549,17.1059996 1.233,1.006 3.536,1.098 3.652,3.09 0.036,1.185 -2.371,0.221 -2.579,-0.731 -2.162,-3.945 -7.341,-6.098 -11.5480005,-4.165 -5.89199997,2.489 -7.893,10.421 -4.814,15.784 2.091,4.197 7.556,6.514 11.9010005,4.394 3.826,-1.694 5.994,-5.872 6.107,-9.924 0.052,-1.189 1.936004,-2.791 1.553004,-0.776 0.367,5.065 0.127,10.233 -1.143004,15.163 0.108,1.052 -2.357,3.533 -0.165,3.149 1.732004,0 3.464004,0 5.196004,0 -0.721,-2.496 -1.892,-5.367 -2.022,-8.184 -0.268,-2.471 -0.29,-4.96 -0.286,-7.442 z"
     id="path43924" />
</svg>
