<?xml version="1.0" encoding="UTF-8" standalone="no"?>
<svg
   id="svg2"
   height="540"
   width="360"
   version="1.1"
   inkscape:version="0.91 r13725"
   sodipodi:docname="playing_cards_1.svg"
   xmlns:inkscape="http://www.inkscape.org/namespaces/inkscape"
   xmlns:sodipodi="http://sodipodi.sourceforge.net/DTD/sodipodi-0.dtd"
   xmlns="http://www.w3.org/2000/svg"
   xmlns:svg="http://www.w3.org/2000/svg"
   xmlns:rdf="http://www.w3.org/1999/02/22-rdf-syntax-ns#"
   xmlns:cc="http://creativecommons.org/ns#"
   xmlns:dc="http://purl.org/dc/elements/1.1/">
  <metadata
     id="metadata18927">
    <rdf:RDF>
      <cc:Work
         rdf:about="">
        <dc:format>image/svg+xml</dc:format>
        <dc:type
           rdf:resource="http://purl.org/dc/dcmitype/StillImage" />
      </cc:Work>
    </rdf:RDF>
  </metadata>
  <defs
     id="defs18925" />
  <sodipodi:namedview
     pagecolor="#ffffff"
     bordercolor="#666666"
     borderopacity="1"
     objecttolerance="10"
     gridtolerance="10"
     guidetolerance="10"
     inkscape:pageopacity="0"
     inkscape:pageshadow="2"
     inkscape:window-width="1916"
     inkscape:window-height="1035"
     id="namedview18923"
     showgrid="false"
     inkscape:zoom="0.42501839"
     inkscape:cx="4323.2463"
     inkscape:cy="33.937138"
     inkscape:window-x="4"
     inkscape:window-y="1"
     inkscape:window-maximized="1"
     inkscape:current-layer="svg2"
     inkscape:showpageshadow="2"
     inkscape:pagecheckerboard="0"
     inkscape:deskcolor="#d1d1d1" />
  <g
     id="g21007"
     transform="translate(-30,-1739.96)">
    <rect
       id="rect14512"
       rx="29.944"
       height="539"
       width="359"
       y="1740.46"
       x="30.5"
       style="fill:#ffffff;stroke:#000000" />
    <path
       id="path14518"
       d="m 210,1969.96 c -1.333,6.667 -2.855,8.392 -5.333,12 -2.135,3.109 -5.122,5.562 -8,8 -2.917,2.471 -6.248,4.408 -9.333,6.667 -3.586,2.625 -7.819,4.588 -10.667,8 -3.184,3.815 -6.667,8.364 -6.667,13.333 0,3.975 2.408,7.975 5.333,10.667 3.523,3.241 8.548,5.444 13.333,5.333 5.369,-0.124 10.8,-2.94 14.667,-6.667 2.862,-2.758 5.333,-10.667 5.333,-10.667 v 2.667 c 0,1.333 -0.133,7.29 -1.333,10.667 -1.404,3.951 -3.83,7.579 -6.667,10.667 -3.01,3.273 -10.667,8 -10.667,8 v 1.333 c 0,0 10.612,-2.221 16,-2.667 2.658,-0.22 5.342,-0.22 8,0 5.388,0.446 16,2.667 16,2.667 v -1.333 c 0,0 -7.66,-4.727 -10.667,-8 -2.836,-3.088 -5.263,-6.716 -6.667,-10.667 -1.2,-3.376 -1.333,-10.667 -1.333,-10.667 v -2.667 c 0,0 2.471,7.908 5.333,10.667 3.867,3.726 9.298,6.543 14.667,6.667 4.786,0.11 9.811,-2.092 13.333,-5.333 2.925,-2.692 5.333,-6.691 5.333,-10.667 0,-4.969 -3.483,-9.518 -6.667,-13.333 -2.848,-3.412 -7.08,-5.375 -10.667,-8 -3.085,-2.258 -6.416,-4.195 -9.333,-6.667 -2.878,-2.438 -5.865,-4.891 -8,-8 -2.478,-3.608 -4,-5.333 -5.333,-12"
       inkscape:connector-curvature="0" />
    <path
       id="path14520"
       d="m 60,1829.96 c -0.5,2.5 -1.071,3.147 -2,4.5 -0.801,1.166 -1.921,2.086 -3,3 -1.094,0.927 -2.343,1.653 -3.5,2.5 -1.345,0.984 -2.932,1.72 -4,3 -1.194,1.431 -2.5,3.137 -2.5,5 0,1.491 0.903,2.991 2,4 1.321,1.216 3.205,2.041 5,2 2.01,-0.05 4.05,-1.103 5.5,-2.5 1.073,-1.034 2,-4 2,-4 v 1 c 0,0.5 -0.05,2.734 -0.5,4 -0.527,1.481 -1.436,2.842 -2.5,4 -1.127,1.227 -4,3 -4,3 v 0.5 c 0,0 3.979,-0.833 6,-1 0.997,-0.08 2,-0.08 3,0 2.02,0.167 6,1 6,1 v -0.5 c 0,0 -2.873,-1.773 -4,-3 -1.064,-1.158 -1.973,-2.519 -2.5,-4 -0.45,-1.266 -0.5,-4 -0.5,-4 v -1 c 0,0 0.927,2.966 2,4 1.45,1.397 3.487,2.454 5.5,2.5 1.795,0.04 3.679,-0.784 5,-2 1.097,-1.01 2,-2.509 2,-4 0,-1.863 -1.306,-3.569 -2.5,-5 -1.068,-1.28 -2.655,-2.02 -4,-3 -1.157,-0.847 -2.406,-1.573 -3.5,-2.5 -1.079,-0.914 -2.199,-1.834 -3,-3 -0.929,-1.353 -1.5,-2 -2,-4.5"
       inkscape:connector-curvature="0" />
    <path
       id="path14522"
       d="m 360,2189.96 c -0.5,-2.5 -1.071,-3.147 -2,-4.5 -0.801,-1.166 -1.921,-2.086 -3,-3 -1.094,-0.927 -2.343,-1.653 -3.5,-2.5 -1.345,-0.984 -2.932,-1.72 -4,-3 -1.194,-1.431 -2.5,-3.137 -2.5,-5 0,-1.491 0.903,-2.991 2,-4 1.321,-1.216 3.205,-2.041 5,-2 2.01,0.05 4.05,1.103 5.5,2.5 1.073,1.034 2,4 2,4 v -1 c 0,-0.5 -0.05,-2.734 -0.5,-4 -0.527,-1.481 -1.436,-2.842 -2.5,-4 -1.127,-1.227 -4,-3 -4,-3 v -0.5 c 0,0 3.979,0.833 6,1 0.997,0.08 2,0.08 3,0 2.02,-0.167 6,-1 6,-1 v 0.5 c 0,0 -2.873,1.773 -4,3 -1.064,1.158 -1.973,2.519 -2.5,4 -0.45,1.266 -0.5,4 -0.5,4 v 1 c 0,0 0.927,-2.966 2,-4 1.45,-1.397 3.487,-2.454 5.5,-2.5 1.795,-0.04 3.679,0.784 5,2 1.097,1.01 2,2.509 2,4 0,1.863 -1.306,3.569 -2.5,5 -1.068,1.28 -2.655,2.02 -4,3 -1.157,0.847 -2.406,1.573 -3.5,2.5 -1.079,0.914 -2.199,1.834 -3,3 -0.929,1.353 -1.5,2 -2,4.5"
       inkscape:connector-curvature="0" />
    <g
       id="text19545"
       style="font-style:normal;font-weight:normal;font-size:49.1411px;line-height:125%;font-family:sans-serif;letter-spacing:0px;word-spacing:0px;fill:#000000;fill-opacity:1;stroke:none;stroke-width:1px;stroke-linecap:butt;stroke-linejoin:miter;stroke-opacity:1"
       transform="scale(0.81398339,1.2285263)">
      <path
         id="path20987"
         d="M 91.714512,1482.9939 H 86.65164 l -3.503219,-9.9578 H 67.695863 l -3.503219,9.9578 h -4.822926 l 13.005103,-35.728 h 6.334589 z m -10.029765,-14.0369 -6.262605,-17.5401 -6.286599,17.5401 z" />
    </g>
    <g
       id="text19549"
       style="font-style:normal;font-weight:normal;font-size:49.1411px;line-height:125%;font-family:sans-serif;letter-spacing:0px;word-spacing:0px;fill:#000000;fill-opacity:1;stroke:none;stroke-width:1px;stroke-linecap:butt;stroke-linejoin:miter;stroke-opacity:1"
       transform="scale(0.81398339,-1.2285263)">
      <path
         id="path20984"
         d="m 457.27786,-1789.7748 h -5.06287 l -3.50322,-9.9578 h -15.45256 l -3.50322,9.9578 h -4.82292 l 13.0051,-35.728 h 6.33459 z m -10.02977,-14.0369 -6.2626,-17.54 -6.2866,17.54 z" />
    </g>
  </g>
</svg>
