<?xml version="1.0" encoding="UTF-8" standalone="no"?>
<svg
   version="1.1"
   width="81.286606"
   height="100.8329"
   id="svg2"
   sodipodi:docname="spade.svg"
   xmlns:inkscape="http://www.inkscape.org/namespaces/inkscape"
   xmlns:sodipodi="http://sodipodi.sourceforge.net/DTD/sodipodi-0.dtd"
   xmlns="http://www.w3.org/2000/svg"
   xmlns:svg="http://www.w3.org/2000/svg">
  <sodipodi:namedview
     id="namedview498"
     pagecolor="#ffffff"
     bordercolor="#000000"
     borderopacity="0.25"
     inkscape:showpageshadow="2"
     inkscape:pageopacity="0.0"
     inkscape:pagecheckerboard="0"
     inkscape:deskcolor="#d1d1d1"
     showgrid="false" />
  <defs
     id="defs1" />
  <path
     d="m 34.622496,100.8329 h 12.043635 l 0.36036,-0.3938 c -3.38112,-5.691002 -5.06281,-15.948602 -5.06281,-30.753002 l 0.0945,-1.5419 c 2.85534,8.8653 9.42853,15.0309 19.0717,15.0309 11.5533,0 19.97556,-10.7164 20.15673,-22.122 0,-17.4924 -23.09871,-30.176 -40.64232,-61.0531003242187 C 23.100687,30.877098 1.0107422e-6,43.560698 1.0107422e-6,61.053098 0.18116801,72.458698 8.605405,83.175098 20.156733,83.175098 c 9.645141,0 16.216362,-6.1656 19.071702,-15.0309 l 0.09452,1.5419 c 0,14.8044 -1.681697,25.062 -5.062813,30.753002 z"
     id="use22215"
     style="stroke-width:1.9692" />
</svg>
